<svg xmlns="http://www.w3.org/2000/svg" version="1.1" f width="115" height="48" style="shape-rendering:geometricPrecision; text-rendering:geometricPrecision; image-rendering:optimizeQuality; fill-rule:evenodd; clip-rule:evenodd" xmlns:xlink="http://www.w3.org/1999/xlink">
<g><path style="opacity:0.967" fill="#000000" d="M 251.5,23.5 C 254.187,23.3359 256.854,23.5026 259.5,24C 261.333,24.5 262.5,25.6667 263,27.5C 263.667,40.8333 263.667,54.1667 263,67.5C 262.5,69.3333 261.333,70.5 259.5,71C 256.833,71.6667 254.167,71.6667 251.5,71C 249.667,70.5 248.5,69.3333 248,67.5C 247.333,54.1667 247.333,40.8333 248,27.5C 248.69,25.6498 249.856,24.3164 251.5,23.5 Z"/></g>
<g><path style="opacity:0.971" fill="#010101" d="M 315.5,23.5 C 362.252,23.129 400.085,41.129 429,77.5C 447.752,103.092 456.419,131.759 455,163.5C 454.5,165.333 453.333,166.5 451.5,167C 432.167,167.667 412.833,167.667 393.5,167C 389.232,162.572 388.232,157.406 390.5,151.5C 388.3,137.732 380.633,133.232 367.5,138C 365.667,139.833 363.833,141.667 362,143.5C 361.042,146.075 360.542,148.741 360.5,151.5C 362.768,157.406 361.768,162.572 357.5,167C 343.5,167.667 329.5,167.667 315.5,167C 313.667,166.5 312.5,165.333 312,163.5C 311.5,154.173 311.334,144.839 311.5,135.5C 291.171,134.504 280.504,123.838 279.5,103.5C 280.504,83.1624 291.171,72.4957 311.5,71.5C 311.333,56.8295 311.5,42.1629 312,27.5C 312.69,25.6498 313.856,24.3164 315.5,23.5 Z"/></g>
<g><path style="opacity:1" fill="#81bbf1" d="M 327.5,40.5 C 376.311,45.1429 410.811,69.8095 431,114.5C 436.003,126.349 438.503,138.682 438.5,151.5C 428.167,151.5 417.833,151.5 407.5,151.5C 405.69,131.193 394.523,120.526 374,119.5C 355.124,121.876 344.957,132.542 343.5,151.5C 338.167,151.5 332.833,151.5 327.5,151.5C 327.949,141.395 327.449,131.395 326,121.5C 325.167,120.667 324.333,119.833 323.5,119C 319.323,118.542 315.157,118.708 311,119.5C 296.915,116.332 292.582,107.999 298,94.5C 301.221,90.0566 305.555,87.7232 311,87.5C 315.157,88.2917 319.323,88.4583 323.5,88C 324.333,87.1667 325.167,86.3333 326,85.5C 327.467,70.5967 327.967,55.5967 327.5,40.5 Z"/></g>
<g><path style="opacity:0.905" fill="#000000" d="M 156.5,48.5 C 160.803,47.7962 164.303,49.1295 167,52.5C 171.601,61.425 176.601,70.0917 182,78.5C 186.294,88.5091 183.128,93.3424 172.5,93C 170.714,92.2155 169.214,91.0488 168,89.5C 161.751,78.8319 155.918,67.9985 150.5,57C 151.161,53.1793 153.161,50.346 156.5,48.5 Z"/></g>
<g><path style="opacity:0.98" fill="#010100" d="M 239.5,87.5 C 246.175,87.3337 252.842,87.5004 259.5,88C 261.333,88.5 262.5,89.6667 263,91.5C 263.667,110.833 263.667,130.167 263,149.5C 258.572,153.768 253.406,154.768 247.5,152.5C 233.732,154.7 229.232,162.367 234,175.5C 235.833,177.333 237.667,179.167 239.5,181C 242.075,181.958 244.741,182.458 247.5,182.5C 253.406,180.232 258.572,181.232 263,185.5C 263.5,195.494 263.666,205.494 263.5,215.5C 268.833,215.5 274.167,215.5 279.5,215.5C 280.496,195.171 291.162,184.504 311.5,183.5C 331.838,184.504 342.504,195.171 343.5,215.5C 358.93,215.032 374.263,215.532 389.5,217C 393.102,247.758 385.935,275.925 368,301.5C 353.586,321.746 335.086,337.079 312.5,347.5C 311.509,351.445 311.176,355.445 311.5,359.5C 325.208,356.779 335.375,361.446 342,373.5C 343.597,384.427 343.931,395.427 343,406.5C 337.252,420.628 326.752,426.295 311.5,423.5C 311.667,434.505 311.5,445.505 311,456.5C 307.44,471.061 298.606,480.894 284.5,486C 274.89,487.113 265.223,487.613 255.5,487.5C 236.98,491.253 221.147,486.586 208,473.5C 203.995,468.489 201.328,462.822 200,456.5C 199.5,445.505 199.333,434.505 199.5,423.5C 185.792,426.221 175.625,421.554 169,409.5C 167.403,398.573 167.069,387.573 168,376.5C 173.748,362.372 184.248,356.705 199.5,359.5C 199.824,355.445 199.491,351.445 198.5,347.5C 153.56,325.337 127.393,289.337 120,239.5C 115.845,173.945 143.011,126.778 201.5,98C 213.865,92.912 226.532,89.412 239.5,87.5 Z"/></g>
<g><path style="opacity:1" fill="#f06573" d="M 241.5,103.5 C 243.5,103.5 245.5,103.5 247.5,103.5C 247.5,114.167 247.5,124.833 247.5,135.5C 228.542,136.957 217.876,147.124 215.5,166C 216.497,186.495 227.164,197.662 247.5,199.5C 247.5,204.833 247.5,210.167 247.5,215.5C 237.395,215.051 227.395,215.551 217.5,217C 216.667,217.833 215.833,218.667 215,219.5C 214.542,223.677 214.708,227.843 215.5,232C 212.332,246.085 203.999,250.418 190.5,245C 186.057,241.779 183.723,237.445 183.5,232C 184.292,227.843 184.458,223.677 184,219.5C 183.167,218.667 182.333,217.833 181.5,217C 166.263,215.532 150.93,215.032 135.5,215.5C 141.034,166.812 166.034,132.312 210.5,112C 220.669,108.044 231.002,105.211 241.5,103.5 Z"/></g>
<g><path style="opacity:0.909" fill="#000000" d="M 85.5,119.5 C 88.1873,119.336 90.854,119.503 93.5,120C 102.833,125.333 112.167,130.667 121.5,136C 126.833,141 126.833,146 121.5,151C 118.5,151.667 115.5,151.667 112.5,151C 102.25,144.959 92.0835,138.792 82,132.5C 79.6346,127.11 80.8013,122.776 85.5,119.5 Z"/></g>
<g><path style="opacity:1" fill="#b2dc89" d="M 306.5,199.5 C 318.538,198.056 325.538,203.223 327.5,215C 326.708,219.157 326.542,223.323 327,227.5C 328.214,229.049 329.714,230.215 331.5,231C 346.163,231.5 360.83,231.667 375.5,231.5C 369.508,281.834 343.341,317.168 297,337.5C 295.571,344.719 295.071,352.053 295.5,359.5C 284.833,359.5 274.167,359.5 263.5,359.5C 263.5,343.5 263.5,327.5 263.5,311.5C 287.704,307.785 297.87,293.785 294,269.5C 288.48,255.825 278.314,248.491 263.5,247.5C 263.5,242.167 263.5,236.833 263.5,231.5C 273.605,231.949 283.605,231.449 293.5,230C 294.333,229.167 295.167,228.333 296,227.5C 295.927,221.838 295.927,216.171 296,210.5C 298.357,205.645 301.857,201.979 306.5,199.5 Z"/></g>
<g><path style="opacity:0.967" fill="#000000" d="M 59.5,215.5 C 72.8375,215.333 86.1708,215.5 99.5,216C 101.333,216.5 102.5,217.667 103,219.5C 103.667,222.167 103.667,224.833 103,227.5C 102.5,229.333 101.333,230.5 99.5,231C 86.1667,231.667 72.8333,231.667 59.5,231C 56.484,229.471 55.1506,226.971 55.5,223.5C 55.2824,219.934 56.6157,217.268 59.5,215.5 Z"/></g>
<g><path style="opacity:0.967" fill="#000000" d="M 411.5,215.5 C 424.837,215.333 438.171,215.5 451.5,216C 453.333,216.5 454.5,217.667 455,219.5C 455.667,222.167 455.667,224.833 455,227.5C 454.5,229.333 453.333,230.5 451.5,231C 438.167,231.667 424.833,231.667 411.5,231C 408.484,229.471 407.151,226.971 407.5,223.5C 407.282,219.934 408.616,217.268 411.5,215.5 Z"/></g>
<g><path style="opacity:1" fill="#f9d974" d="M 135.5,231.5 C 146.167,231.5 156.833,231.5 167.5,231.5C 169.016,250.515 179.183,261.181 198,263.5C 218.466,262.534 229.632,251.867 231.5,231.5C 236.833,231.5 242.167,231.5 247.5,231.5C 247.051,241.605 247.551,251.605 249,261.5C 249.833,262.333 250.667,263.167 251.5,264C 255.677,264.458 259.843,264.292 264,263.5C 277.079,265.985 281.746,273.652 278,286.5C 275.104,292.28 270.438,295.28 264,295.5C 259.843,294.708 255.677,294.542 251.5,295C 249.951,296.214 248.785,297.714 248,299.5C 247.5,319.497 247.333,339.497 247.5,359.5C 236.833,359.5 226.167,359.5 215.5,359.5C 215.929,352.053 215.429,344.719 214,337.5C 167.647,317.131 141.48,281.797 135.5,231.5 Z"/></g>
<g><path style="opacity:0.909" fill="#000000" d="M 112.5,295.5 C 123.001,294.161 126.835,298.494 124,308.5C 114.249,315.295 104.083,321.461 93.5,327C 83.0277,328.863 79.1943,324.696 82,314.5C 92.3148,308.267 102.481,301.934 112.5,295.5 Z"/></g>
<g><path style="opacity:0.91" fill="#000000" d="M 389.5,295.5 C 392.518,295.335 395.518,295.502 398.5,296C 408.75,302.041 418.917,308.208 429,314.5C 431.806,324.696 427.972,328.863 417.5,327C 406.917,321.461 396.751,315.295 387,308.5C 384.606,303.527 385.44,299.194 389.5,295.5 Z"/></g>
<g><path style="opacity:1" fill="#415a71" d="M 188.5,375.5 C 232.835,375.333 277.168,375.5 321.5,376C 324.232,376.398 326.065,377.898 327,380.5C 327.901,388.579 327.568,396.579 326,404.5C 324.829,405.893 323.329,406.727 321.5,407C 277.167,407.667 232.833,407.667 188.5,407C 185.898,406.065 184.398,404.232 184,401.5C 183.333,394.5 183.333,387.5 184,380.5C 185.025,378.313 186.525,376.646 188.5,375.5 Z"/></g>
<g><path style="opacity:1" fill="#ebe9ef" d="M 215.5,423.5 C 220.833,423.5 226.167,423.5 231.5,423.5C 231.334,432.173 231.5,440.84 232,449.5C 234.405,455.462 238.571,456.962 244.5,454C 245.893,452.829 246.727,451.329 247,449.5C 247.5,440.84 247.666,432.173 247.5,423.5C 252.833,423.5 258.167,423.5 263.5,423.5C 263.334,432.173 263.5,440.84 264,449.5C 266.405,455.462 270.571,456.962 276.5,454C 277.893,452.829 278.727,451.329 279,449.5C 279.5,440.84 279.666,432.173 279.5,423.5C 284.833,423.5 290.167,423.5 295.5,423.5C 295.666,433.506 295.5,443.506 295,453.5C 291.74,462.427 285.573,468.261 276.5,471C 262.167,471.667 247.833,471.667 233.5,471C 225,467.833 219.167,462 216,453.5C 215.5,443.506 215.334,433.506 215.5,423.5 Z"/></g>
</svg>
